<svg width="20" height="20" viewBox="0 0 20 20" fill="none" xmlns="http://www.w3.org/2000/svg">
<path d="M12.7236 5.14049H17.1767V6.22084H12.7236V5.14049ZM8.26151 9.41504C9.24589 8.94406 9.76151 8.22754 9.76151 7.1204C9.76151 4.93066 8.13205 4.39941 6.25035 4.39941H1.07178V15.3905H6.39544C8.39097 15.3905 10.2637 14.4307 10.2637 12.1985C10.2637 10.8191 9.61196 9.79897 8.26151 9.41504V9.41504ZM3.48696 6.27441H5.75258C6.62535 6.27441 7.40883 6.51772 7.40883 7.53111C7.40883 8.46415 6.79946 8.83915 5.93562 8.83915H3.48696V6.27441ZM6.06508 13.5244H3.48472V10.4976H6.11642C7.17892 10.4976 7.8508 10.9418 7.8508 12.0668C7.8508 13.174 7.04946 13.5244 6.06508 13.5244V13.5244ZM18.9178 11.5266C18.9178 9.17174 17.5405 7.20968 15.0495 7.20968C12.6276 7.20968 10.9803 9.03334 10.9803 11.424C10.9803 13.9016 12.5405 15.6025 15.0495 15.6025C16.949 15.6025 18.1789 14.7476 18.7704 12.924H16.8441C16.6343 13.6048 15.7816 13.9619 15.1187 13.9619C13.8374 13.9619 13.1678 13.2119 13.1678 11.9374H18.9021C18.9088 11.8057 18.9178 11.6673 18.9178 11.5266V11.5266ZM13.1678 10.5579C13.237 9.51102 13.9356 8.857 14.9803 8.857C16.0785 8.857 16.6276 9.50209 16.7236 10.5579H13.1678Z" fill="#333333"/>
</svg>
