<svg width="20" height="20" viewBox="0 0 20 20" fill="none" xmlns="http://www.w3.org/2000/svg">
<path d="M17.4937 1.06934H2.50705C1.71463 1.06934 1.07178 1.71219 1.07178 2.5046V17.4912C1.07178 18.2836 1.71463 18.9265 2.50705 18.9265H17.4937C18.2861 18.9265 18.9289 18.2836 18.9289 17.4912V2.5046C18.9289 1.71219 18.2861 1.06934 17.4937 1.06934V1.06934ZM17.4937 17.4979C7.49812 17.4957 2.50035 17.4934 2.50035 17.4912C2.50258 7.49568 2.50481 2.49791 2.50705 2.49791C12.5026 2.50014 17.5003 2.50237 17.5003 2.5046C17.4981 12.5001 17.4959 17.4979 17.4937 17.4979ZM3.7191 7.76353H6.36865V16.2859H3.7191V7.76353ZM5.04499 6.59836C5.89097 6.59836 6.58071 5.91085 6.58071 5.06264C6.58071 4.86097 6.54098 4.66127 6.46381 4.47495C6.38663 4.28863 6.27351 4.11933 6.13091 3.97673C5.9883 3.83412 5.81901 3.721 5.63268 3.64383C5.44636 3.56665 5.24666 3.52693 5.04499 3.52693C4.84332 3.52693 4.64362 3.56665 4.4573 3.64383C4.27098 3.721 4.10168 3.83412 3.95908 3.97673C3.81647 4.11933 3.70335 4.28863 3.62618 4.47495C3.549 4.66127 3.50928 4.86097 3.50928 5.06264C3.50705 5.91085 4.19455 6.59836 5.04499 6.59836ZM10.6767 12.0693C10.6767 10.9577 10.8887 9.88184 12.266 9.88184C13.6231 9.88184 13.6432 11.1519 13.6432 12.1408V16.2859H16.2905V11.6117C16.2905 9.31711 15.795 7.55148 13.1142 7.55148C11.8262 7.55148 10.9624 8.25907 10.6075 8.92871H10.5718V7.76353H8.02937V16.2859H10.6767V12.0693Z" fill="#333333"/>
</svg>
