<svg width="20" height="20" viewBox="0 0 20 20" fill="none" xmlns="http://www.w3.org/2000/svg">
<path d="M9.99999 1.66663C6.77499 1.66663 4.16666 4.27496 4.16666 7.49996C4.16666 11.875 9.99999 18.3333 9.99999 18.3333C9.99999 18.3333 15.8333 11.875 15.8333 7.49996C15.8333 4.27496 13.225 1.66663 9.99999 1.66663ZM5.83332 7.49996C5.83332 5.19996 7.69999 3.33329 9.99999 3.33329C12.3 3.33329 14.1667 5.19996 14.1667 7.49996C14.1667 9.89996 11.7667 13.4916 9.99999 15.7333C8.26666 13.5083 5.83332 9.87496 5.83332 7.49996Z" fill="#333333"/>
<path d="M9.99999 9.58329C11.1506 9.58329 12.0833 8.65055 12.0833 7.49996C12.0833 6.34937 11.1506 5.41663 9.99999 5.41663C8.8494 5.41663 7.91666 6.34937 7.91666 7.49996C7.91666 8.65055 8.8494 9.58329 9.99999 9.58329Z" fill="#333333"/>
</svg>
