<svg width="20" height="20" viewBox="0 0 20 20" fill="none" xmlns="http://www.w3.org/2000/svg">
<path d="M12.9167 0.833374H6.24999C5.09999 0.833374 4.16666 1.76671 4.16666 2.91671V17.0834C4.16666 18.2334 5.09999 19.1667 6.24999 19.1667H12.9167C14.0667 19.1667 15 18.2334 15 17.0834V2.91671C15 1.76671 14.0667 0.833374 12.9167 0.833374ZM9.58332 18.3334C8.89166 18.3334 8.33332 17.775 8.33332 17.0834C8.33332 16.3917 8.89166 15.8334 9.58332 15.8334C10.275 15.8334 10.8333 16.3917 10.8333 17.0834C10.8333 17.775 10.275 18.3334 9.58332 18.3334ZM13.3333 15H5.83332V3.33337H13.3333V15Z" fill="#333333"/>
</svg>
